# xmcd
#
# Track frame offsets:
#	150
#	17990
#	32075
#	51614
#	70870
#	85215
#	95060
#	109025
#	128917
#	147667
#
# Disc length: 2199 seconds
#
# Revision: 0
# Processed by: cddbd v1.4PL0 Copyright (c) Steve Scherf et al.
# Submitted via: audiograbber 1.80
#
DISCID=9508950a
DTITLE=Buddy Guy and Junior Wells - Play the Blues
DYEAR=1900
DGENRE=
TTITLE0=A Man of Many Words
TTITLE1=My Baby She Left Me (She  Left Me a Mule to Ride)
TTITLE2=a.Come On In this House - b.Have Mercy Baby
TTITLE3=T-Bone Shuffle
TTITLE4=A Poor Man`s Plea
TTITLE5=Messin` wih the Kid
TTITLE6=This Old Fool
TTITLE7=I don`t Know
TTITLE8=Bad Bad Whiskey
TTITLE9=Honeydripper
EXTD=
EXTT0=
EXTT1=
EXTT2=
EXTT3=
EXTT4=
EXTT5=
EXTT6=
EXTT7=
EXTT8=
EXTT9=
PLAYORDER=
